<?xml version="1.0" encoding="utf-8"?>
<!-- Generator: Adobe Illustrator 26.4.0, SVG Export Plug-In . SVG Version: 6.00 Build 0)  -->
<svg version="1.1" id="Layer_1" xmlns="http://www.w3.org/2000/svg" xmlns:xlink="http://www.w3.org/1999/xlink" x="0px" y="0px"
	 viewBox="0 0 306 344.4" style="enable-background:new 0 0 306 344.4;" xml:space="preserve">
<style type="text/css">
	.st0{fill:url(#SVGID_1_);}
</style>
<linearGradient id="SVGID_1_" gradientUnits="userSpaceOnUse" x1="9.8766" y1="172.2" x2="294.98" y2="172.2">
	<stop  offset="0" style="stop-color:#FFFFFF"/>
	<stop  offset="3.567789e-03" style="stop-color:#1465D3"/>
	<stop  offset="1" style="stop-color:#1E8BDE"/>
	<stop  offset="1" style="stop-color:#000000"/>
</linearGradient>
<path class="st0" d="M287,226.5c-13.5-6.6-26.8-13.8-41.2-21.3c13.2-8,25.3-15.4,37.5-22.8c5.4-3.3,11.1-6.5,10.9-14
	c-0.2-8.1-5.8-11.8-12.5-15c-11.7-5.6-23.1-11.7-35.7-18.2c14.1-8.6,26.6-16,39-23.7c13.1-8.2,12.7-18.8-1.1-26
	c-41.5-21.8-83.1-43.3-124.6-64.9c-6.7-3.5-12.9-3.7-19.6,0.4c-40,24.6-80.1,48.9-120.1,73.4c-13.2,8.1-12.8,18.8,0.9,26
	c12.5,6.6,25.2,12.8,38.7,19.7c-14,8.7-27,16.6-39.9,24.8c-11.8,7.5-11.5,18,1,24.8c12.5,6.8,25.2,13.1,39,20.3
	c-14.2,8.7-27,16.3-39.5,24.3c-12.5,8-12.1,18.3,1.1,25.2c41.3,21.4,82.7,42.5,123.9,64c8.2,4.3,15,4.3,23.2-0.9
	c38.6-24.2,77.5-47.7,116.3-71.5c2.1-1.3,4.3-2.4,6.1-4C297.8,240.4,296.1,231,287,226.5z M23.5,107.6
	C64.6,82.6,104.3,58.3,144,34.1c3.3-2,6-3.5,10.2-1.3c40.9,21.3,82,42.3,123,63.4c0.9,0.5,1.6,1.3,2.9,2.4
	c-40.7,25-80.8,49.6-121,74.3c-2.4,1.5-4.4,2.2-7.5,0.6C109.6,151.6,67.3,130.1,23.5,107.6z M23.7,178c16.2-10,31.6-19.5,47.1-29
	c3.5-2.2,5.8,1,8.4,2.3c21.6,11,43.3,21.9,64.7,33.4c8.7,4.7,15.8,4.2,24.1-1.1c18.7-12.1,38-23,56.7-35c6.1-3.9,10.7-3.8,16.7-0.4
	c12.4,7,25.1,13.2,39.6,20.7c-41.5,25.2-81.6,49.3-121.4,73.9c-4.8,3-7.8,0.8-11.4-1C107.2,220.8,66.2,199.8,23.7,178z M175.7,303.4
	c-14.7,9.8-25.8,10.7-41.5,1.8c-35.8-20.3-73-38.3-110.6-57.7c15.5-9.4,30.3-18.2,44.8-27.4c4.6-2.9,7.9-0.3,11.5,1.5
	c21.9,11.2,43.8,22.3,65.5,33.9c7.3,3.9,13.4,3.6,20.3-0.9c19.9-12.7,40.2-24.7,60.2-37.3c4.6-2.9,8.3-3.2,13.3-0.5
	c13.3,7.3,26.9,14,41.6,21.6C245,260.4,209.6,280.8,175.7,303.4z"/>
</svg>
